<mxfile host="app.diagrams.net" modified="2021-09-16T18:43:31.451Z" agent="5.0 (Windows NT 10.0; Win64; x64) AppleWebKit/537.36 (KHTML, like Gecko) Chrome/93.0.4577.82 Safari/537.36" etag="9w93YKNWVtDrxU069x-o" version="15.2.7" type="github" pages="2">
  <diagram id="C5RBs43oDa-KdzZeNtuy" name="User Journey">
    <mxGraphModel dx="3279" dy="962" grid="1" gridSize="10" guides="1" tooltips="1" connect="1" arrows="1" fold="1" page="1" pageScale="1" pageWidth="827" pageHeight="1169" math="0" shadow="0">
      <root>
        <mxCell id="WIyWlLk6GJQsqaUBKTNV-0" />
        <mxCell id="WIyWlLk6GJQsqaUBKTNV-1" parent="WIyWlLk6GJQsqaUBKTNV-0" />
        <mxCell id="iLt4iIN_A0SLLBgRAnyO-5" value="" style="edgeStyle=orthogonalEdgeStyle;rounded=0;orthogonalLoop=1;jettySize=auto;html=1;" edge="1" parent="WIyWlLk6GJQsqaUBKTNV-1" source="iLt4iIN_A0SLLBgRAnyO-3" target="iLt4iIN_A0SLLBgRAnyO-6">
          <mxGeometry relative="1" as="geometry">
            <mxPoint x="375" y="160" as="targetPoint" />
          </mxGeometry>
        </mxCell>
        <mxCell id="iLt4iIN_A0SLLBgRAnyO-3" value="User" style="strokeWidth=2;html=1;shape=mxgraph.flowchart.start_2;whiteSpace=wrap;" vertex="1" parent="WIyWlLk6GJQsqaUBKTNV-1">
          <mxGeometry x="350" y="40" width="50" height="50" as="geometry" />
        </mxCell>
        <mxCell id="iLt4iIN_A0SLLBgRAnyO-25" value="" style="edgeStyle=orthogonalEdgeStyle;rounded=0;orthogonalLoop=1;jettySize=auto;html=1;" edge="1" parent="WIyWlLk6GJQsqaUBKTNV-1" source="iLt4iIN_A0SLLBgRAnyO-6" target="iLt4iIN_A0SLLBgRAnyO-24">
          <mxGeometry relative="1" as="geometry" />
        </mxCell>
        <mxCell id="iLt4iIN_A0SLLBgRAnyO-6" value="Authenticate" style="rounded=1;whiteSpace=wrap;html=1;absoluteArcSize=1;arcSize=14;strokeWidth=2;" vertex="1" parent="WIyWlLk6GJQsqaUBKTNV-1">
          <mxGeometry x="332.5" y="140" width="85" height="40" as="geometry" />
        </mxCell>
        <mxCell id="iLt4iIN_A0SLLBgRAnyO-27" value="" style="edgeStyle=orthogonalEdgeStyle;rounded=0;orthogonalLoop=1;jettySize=auto;html=1;" edge="1" parent="WIyWlLk6GJQsqaUBKTNV-1" source="iLt4iIN_A0SLLBgRAnyO-24" target="iLt4iIN_A0SLLBgRAnyO-26">
          <mxGeometry relative="1" as="geometry" />
        </mxCell>
        <mxCell id="iLt4iIN_A0SLLBgRAnyO-29" value="Yes" style="edgeLabel;html=1;align=center;verticalAlign=middle;resizable=0;points=[];" vertex="1" connectable="0" parent="iLt4iIN_A0SLLBgRAnyO-27">
          <mxGeometry x="-0.2804" y="1" relative="1" as="geometry">
            <mxPoint as="offset" />
          </mxGeometry>
        </mxCell>
        <mxCell id="iLt4iIN_A0SLLBgRAnyO-43" value="" style="edgeStyle=orthogonalEdgeStyle;rounded=0;orthogonalLoop=1;jettySize=auto;html=1;" edge="1" parent="WIyWlLk6GJQsqaUBKTNV-1" source="iLt4iIN_A0SLLBgRAnyO-24" target="iLt4iIN_A0SLLBgRAnyO-42">
          <mxGeometry relative="1" as="geometry" />
        </mxCell>
        <mxCell id="iLt4iIN_A0SLLBgRAnyO-24" value="Has Current Game?" style="rhombus;whiteSpace=wrap;html=1;rounded=1;strokeWidth=2;arcSize=14;" vertex="1" parent="WIyWlLk6GJQsqaUBKTNV-1">
          <mxGeometry x="335" y="240" width="80" height="80" as="geometry" />
        </mxCell>
        <mxCell id="iLt4iIN_A0SLLBgRAnyO-64" style="edgeStyle=orthogonalEdgeStyle;rounded=0;orthogonalLoop=1;jettySize=auto;html=1;" edge="1" parent="WIyWlLk6GJQsqaUBKTNV-1" source="iLt4iIN_A0SLLBgRAnyO-26" target="iLt4iIN_A0SLLBgRAnyO-63">
          <mxGeometry relative="1" as="geometry" />
        </mxCell>
        <mxCell id="iLt4iIN_A0SLLBgRAnyO-26" value="Continue Game" style="whiteSpace=wrap;html=1;rounded=1;strokeWidth=2;arcSize=14;" vertex="1" parent="WIyWlLk6GJQsqaUBKTNV-1">
          <mxGeometry x="315" y="410" width="120" height="60" as="geometry" />
        </mxCell>
        <mxCell id="iLt4iIN_A0SLLBgRAnyO-45" value="" style="edgeStyle=orthogonalEdgeStyle;rounded=0;orthogonalLoop=1;jettySize=auto;html=1;" edge="1" parent="WIyWlLk6GJQsqaUBKTNV-1" source="iLt4iIN_A0SLLBgRAnyO-42" target="iLt4iIN_A0SLLBgRAnyO-44">
          <mxGeometry relative="1" as="geometry" />
        </mxCell>
        <mxCell id="iLt4iIN_A0SLLBgRAnyO-42" value="New Game Lobby&lt;br&gt;(Create or Join with Code)" style="whiteSpace=wrap;html=1;rounded=1;strokeWidth=2;arcSize=14;" vertex="1" parent="WIyWlLk6GJQsqaUBKTNV-1">
          <mxGeometry x="155" y="250" width="120" height="60" as="geometry" />
        </mxCell>
        <mxCell id="iLt4iIN_A0SLLBgRAnyO-47" value="" style="edgeStyle=orthogonalEdgeStyle;rounded=0;orthogonalLoop=1;jettySize=auto;html=1;" edge="1" parent="WIyWlLk6GJQsqaUBKTNV-1" source="iLt4iIN_A0SLLBgRAnyO-44" target="iLt4iIN_A0SLLBgRAnyO-46">
          <mxGeometry relative="1" as="geometry" />
        </mxCell>
        <mxCell id="iLt4iIN_A0SLLBgRAnyO-48" value="Text" style="edgeLabel;html=1;align=center;verticalAlign=middle;resizable=0;points=[];" vertex="1" connectable="0" parent="iLt4iIN_A0SLLBgRAnyO-47">
          <mxGeometry x="-0.2381" relative="1" as="geometry">
            <mxPoint as="offset" />
          </mxGeometry>
        </mxCell>
        <mxCell id="iLt4iIN_A0SLLBgRAnyO-49" value="Join" style="edgeLabel;html=1;align=center;verticalAlign=middle;resizable=0;points=[];" vertex="1" connectable="0" parent="iLt4iIN_A0SLLBgRAnyO-47">
          <mxGeometry x="-0.1534" y="-2" relative="1" as="geometry">
            <mxPoint as="offset" />
          </mxGeometry>
        </mxCell>
        <mxCell id="iLt4iIN_A0SLLBgRAnyO-51" value="" style="edgeStyle=orthogonalEdgeStyle;rounded=0;orthogonalLoop=1;jettySize=auto;html=1;" edge="1" parent="WIyWlLk6GJQsqaUBKTNV-1" source="iLt4iIN_A0SLLBgRAnyO-44" target="iLt4iIN_A0SLLBgRAnyO-50">
          <mxGeometry relative="1" as="geometry" />
        </mxCell>
        <mxCell id="iLt4iIN_A0SLLBgRAnyO-52" value="Create" style="edgeLabel;html=1;align=center;verticalAlign=middle;resizable=0;points=[];" vertex="1" connectable="0" parent="iLt4iIN_A0SLLBgRAnyO-51">
          <mxGeometry x="-0.2651" y="-1" relative="1" as="geometry">
            <mxPoint as="offset" />
          </mxGeometry>
        </mxCell>
        <mxCell id="iLt4iIN_A0SLLBgRAnyO-44" value="" style="rhombus;whiteSpace=wrap;html=1;rounded=1;strokeWidth=2;arcSize=14;" vertex="1" parent="WIyWlLk6GJQsqaUBKTNV-1">
          <mxGeometry x="-25" y="240" width="80" height="80" as="geometry" />
        </mxCell>
        <mxCell id="iLt4iIN_A0SLLBgRAnyO-58" value="" style="edgeStyle=orthogonalEdgeStyle;rounded=0;orthogonalLoop=1;jettySize=auto;html=1;" edge="1" parent="WIyWlLk6GJQsqaUBKTNV-1" source="iLt4iIN_A0SLLBgRAnyO-46" target="iLt4iIN_A0SLLBgRAnyO-57">
          <mxGeometry relative="1" as="geometry" />
        </mxCell>
        <mxCell id="iLt4iIN_A0SLLBgRAnyO-46" value="Validate Code" style="whiteSpace=wrap;html=1;rounded=1;strokeWidth=2;arcSize=14;" vertex="1" parent="WIyWlLk6GJQsqaUBKTNV-1">
          <mxGeometry x="-45" y="410" width="120" height="60" as="geometry" />
        </mxCell>
        <mxCell id="iLt4iIN_A0SLLBgRAnyO-54" value="" style="edgeStyle=orthogonalEdgeStyle;rounded=0;orthogonalLoop=1;jettySize=auto;html=1;" edge="1" parent="WIyWlLk6GJQsqaUBKTNV-1" source="iLt4iIN_A0SLLBgRAnyO-50" target="iLt4iIN_A0SLLBgRAnyO-53">
          <mxGeometry relative="1" as="geometry" />
        </mxCell>
        <mxCell id="iLt4iIN_A0SLLBgRAnyO-50" value="Create new Game" style="whiteSpace=wrap;html=1;rounded=1;strokeWidth=2;arcSize=14;" vertex="1" parent="WIyWlLk6GJQsqaUBKTNV-1">
          <mxGeometry x="-210" y="250" width="120" height="60" as="geometry" />
        </mxCell>
        <mxCell id="iLt4iIN_A0SLLBgRAnyO-56" style="edgeStyle=orthogonalEdgeStyle;rounded=0;orthogonalLoop=1;jettySize=auto;html=1;" edge="1" parent="WIyWlLk6GJQsqaUBKTNV-1" source="iLt4iIN_A0SLLBgRAnyO-53" target="iLt4iIN_A0SLLBgRAnyO-55">
          <mxGeometry relative="1" as="geometry" />
        </mxCell>
        <mxCell id="iLt4iIN_A0SLLBgRAnyO-53" value="Waiting for player" style="whiteSpace=wrap;html=1;rounded=1;strokeWidth=2;arcSize=14;" vertex="1" parent="WIyWlLk6GJQsqaUBKTNV-1">
          <mxGeometry x="-405" y="250" width="120" height="60" as="geometry" />
        </mxCell>
        <mxCell id="iLt4iIN_A0SLLBgRAnyO-55" value="" style="verticalLabelPosition=bottom;verticalAlign=top;html=1;shape=mxgraph.flowchart.or;" vertex="1" parent="WIyWlLk6GJQsqaUBKTNV-1">
          <mxGeometry x="-520" y="255" width="50" height="50" as="geometry" />
        </mxCell>
        <mxCell id="iLt4iIN_A0SLLBgRAnyO-59" style="edgeStyle=orthogonalEdgeStyle;rounded=0;orthogonalLoop=1;jettySize=auto;html=1;exitX=0.5;exitY=1;exitDx=0;exitDy=0;" edge="1" parent="WIyWlLk6GJQsqaUBKTNV-1" source="iLt4iIN_A0SLLBgRAnyO-57">
          <mxGeometry relative="1" as="geometry">
            <mxPoint x="375" y="470" as="targetPoint" />
            <Array as="points">
              <mxPoint x="15" y="640" />
              <mxPoint x="375" y="640" />
            </Array>
          </mxGeometry>
        </mxCell>
        <mxCell id="iLt4iIN_A0SLLBgRAnyO-62" value="Yes" style="edgeLabel;html=1;align=center;verticalAlign=middle;resizable=0;points=[];" vertex="1" connectable="0" parent="iLt4iIN_A0SLLBgRAnyO-59">
          <mxGeometry x="-0.7148" relative="1" as="geometry">
            <mxPoint as="offset" />
          </mxGeometry>
        </mxCell>
        <mxCell id="iLt4iIN_A0SLLBgRAnyO-60" style="edgeStyle=orthogonalEdgeStyle;rounded=0;orthogonalLoop=1;jettySize=auto;html=1;" edge="1" parent="WIyWlLk6GJQsqaUBKTNV-1" source="iLt4iIN_A0SLLBgRAnyO-57" target="iLt4iIN_A0SLLBgRAnyO-42">
          <mxGeometry relative="1" as="geometry" />
        </mxCell>
        <mxCell id="iLt4iIN_A0SLLBgRAnyO-57" value="Valid code ?" style="rhombus;whiteSpace=wrap;html=1;rounded=1;strokeWidth=2;arcSize=14;" vertex="1" parent="WIyWlLk6GJQsqaUBKTNV-1">
          <mxGeometry x="-25" y="540" width="80" height="80" as="geometry" />
        </mxCell>
        <mxCell id="iLt4iIN_A0SLLBgRAnyO-61" value="No" style="text;html=1;align=center;verticalAlign=middle;resizable=0;points=[];autosize=1;strokeColor=none;fillColor=none;" vertex="1" parent="WIyWlLk6GJQsqaUBKTNV-1">
          <mxGeometry x="85" y="570" width="30" height="20" as="geometry" />
        </mxCell>
        <mxCell id="iLt4iIN_A0SLLBgRAnyO-63" value="" style="verticalLabelPosition=bottom;verticalAlign=top;html=1;shape=mxgraph.flowchart.or;" vertex="1" parent="WIyWlLk6GJQsqaUBKTNV-1">
          <mxGeometry x="510" y="415" width="50" height="50" as="geometry" />
        </mxCell>
      </root>
    </mxGraphModel>
  </diagram>
  <diagram id="WU6_oSKuWZKCfWd4Ygwm" name="Game session">
    <mxGraphModel dx="1177" dy="462" grid="1" gridSize="10" guides="1" tooltips="1" connect="1" arrows="1" fold="1" page="1" pageScale="1" pageWidth="827" pageHeight="1169" math="0" shadow="0">
      <root>
        <mxCell id="sPSTHMW7Nx6ZHRc37egf-0" />
        <mxCell id="sPSTHMW7Nx6ZHRc37egf-1" parent="sPSTHMW7Nx6ZHRc37egf-0" />
        <mxCell id="WDq88t9SVUzPZIsbHhAd-7" style="edgeStyle=orthogonalEdgeStyle;rounded=0;orthogonalLoop=1;jettySize=auto;html=1;" edge="1" parent="sPSTHMW7Nx6ZHRc37egf-1" source="sPSTHMW7Nx6ZHRc37egf-2" target="WDq88t9SVUzPZIsbHhAd-6">
          <mxGeometry relative="1" as="geometry" />
        </mxCell>
        <mxCell id="sPSTHMW7Nx6ZHRc37egf-2" value="" style="strokeWidth=2;html=1;shape=mxgraph.flowchart.start_2;whiteSpace=wrap;" vertex="1" parent="sPSTHMW7Nx6ZHRc37egf-1">
          <mxGeometry x="350" y="30" width="100" height="100" as="geometry" />
        </mxCell>
        <mxCell id="WDq88t9SVUzPZIsbHhAd-9" value="" style="edgeStyle=orthogonalEdgeStyle;rounded=0;orthogonalLoop=1;jettySize=auto;html=1;" edge="1" parent="sPSTHMW7Nx6ZHRc37egf-1" source="WDq88t9SVUzPZIsbHhAd-6" target="WDq88t9SVUzPZIsbHhAd-8">
          <mxGeometry relative="1" as="geometry" />
        </mxCell>
        <mxCell id="WDq88t9SVUzPZIsbHhAd-6" value="Waiting for players..." style="rounded=1;whiteSpace=wrap;html=1;absoluteArcSize=1;arcSize=14;strokeWidth=2;" vertex="1" parent="sPSTHMW7Nx6ZHRc37egf-1">
          <mxGeometry x="338.5" y="190" width="123" height="50" as="geometry" />
        </mxCell>
        <mxCell id="WDq88t9SVUzPZIsbHhAd-10" style="edgeStyle=orthogonalEdgeStyle;rounded=0;orthogonalLoop=1;jettySize=auto;html=1;entryX=1.006;entryY=0.432;entryDx=0;entryDy=0;entryPerimeter=0;" edge="1" parent="sPSTHMW7Nx6ZHRc37egf-1" source="WDq88t9SVUzPZIsbHhAd-8" target="WDq88t9SVUzPZIsbHhAd-6">
          <mxGeometry relative="1" as="geometry">
            <Array as="points">
              <mxPoint x="482" y="345" />
              <mxPoint x="482" y="212" />
            </Array>
          </mxGeometry>
        </mxCell>
        <mxCell id="WDq88t9SVUzPZIsbHhAd-11" value="No" style="edgeLabel;html=1;align=center;verticalAlign=middle;resizable=0;points=[];" vertex="1" connectable="0" parent="WDq88t9SVUzPZIsbHhAd-10">
          <mxGeometry x="-0.6741" y="-1" relative="1" as="geometry">
            <mxPoint as="offset" />
          </mxGeometry>
        </mxCell>
        <mxCell id="WDq88t9SVUzPZIsbHhAd-13" value="" style="edgeStyle=orthogonalEdgeStyle;rounded=0;orthogonalLoop=1;jettySize=auto;html=1;" edge="1" parent="sPSTHMW7Nx6ZHRc37egf-1" source="WDq88t9SVUzPZIsbHhAd-8" target="WDq88t9SVUzPZIsbHhAd-12">
          <mxGeometry relative="1" as="geometry" />
        </mxCell>
        <mxCell id="WDq88t9SVUzPZIsbHhAd-14" value="Yes" style="edgeLabel;html=1;align=center;verticalAlign=middle;resizable=0;points=[];" vertex="1" connectable="0" parent="WDq88t9SVUzPZIsbHhAd-13">
          <mxGeometry x="-0.2933" relative="1" as="geometry">
            <mxPoint as="offset" />
          </mxGeometry>
        </mxCell>
        <mxCell id="WDq88t9SVUzPZIsbHhAd-8" value="All players joined ?" style="rhombus;whiteSpace=wrap;html=1;rounded=1;strokeWidth=2;arcSize=14;" vertex="1" parent="sPSTHMW7Nx6ZHRc37egf-1">
          <mxGeometry x="360" y="305" width="80" height="80" as="geometry" />
        </mxCell>
        <mxCell id="WDq88t9SVUzPZIsbHhAd-16" value="" style="edgeStyle=orthogonalEdgeStyle;rounded=0;orthogonalLoop=1;jettySize=auto;html=1;" edge="1" parent="sPSTHMW7Nx6ZHRc37egf-1" source="WDq88t9SVUzPZIsbHhAd-12" target="WDq88t9SVUzPZIsbHhAd-15">
          <mxGeometry relative="1" as="geometry" />
        </mxCell>
        <mxCell id="WDq88t9SVUzPZIsbHhAd-12" value="Initialization&lt;br&gt;(World creation and stuff)" style="whiteSpace=wrap;html=1;rounded=1;strokeWidth=2;arcSize=14;" vertex="1" parent="sPSTHMW7Nx6ZHRc37egf-1">
          <mxGeometry x="340" y="475" width="120" height="60" as="geometry" />
        </mxCell>
        <mxCell id="WDq88t9SVUzPZIsbHhAd-18" value="" style="edgeStyle=orthogonalEdgeStyle;rounded=0;orthogonalLoop=1;jettySize=auto;html=1;" edge="1" parent="sPSTHMW7Nx6ZHRc37egf-1" source="WDq88t9SVUzPZIsbHhAd-15" target="WDq88t9SVUzPZIsbHhAd-17">
          <mxGeometry relative="1" as="geometry" />
        </mxCell>
        <mxCell id="WDq88t9SVUzPZIsbHhAd-15" value="Events phase" style="whiteSpace=wrap;html=1;rounded=1;strokeWidth=2;arcSize=14;" vertex="1" parent="sPSTHMW7Nx6ZHRc37egf-1">
          <mxGeometry x="340" y="615" width="120" height="60" as="geometry" />
        </mxCell>
        <mxCell id="WDq88t9SVUzPZIsbHhAd-20" value="" style="edgeStyle=orthogonalEdgeStyle;rounded=0;orthogonalLoop=1;jettySize=auto;html=1;" edge="1" parent="sPSTHMW7Nx6ZHRc37egf-1" source="WDq88t9SVUzPZIsbHhAd-17" target="WDq88t9SVUzPZIsbHhAd-19">
          <mxGeometry relative="1" as="geometry" />
        </mxCell>
        <mxCell id="WDq88t9SVUzPZIsbHhAd-17" value="Order phase" style="whiteSpace=wrap;html=1;rounded=1;strokeWidth=2;arcSize=14;" vertex="1" parent="sPSTHMW7Nx6ZHRc37egf-1">
          <mxGeometry x="340" y="755" width="120" height="60" as="geometry" />
        </mxCell>
        <mxCell id="WDq88t9SVUzPZIsbHhAd-21" style="edgeStyle=orthogonalEdgeStyle;rounded=0;orthogonalLoop=1;jettySize=auto;html=1;entryX=1.002;entryY=0.417;entryDx=0;entryDy=0;entryPerimeter=0;" edge="1" parent="sPSTHMW7Nx6ZHRc37egf-1" source="WDq88t9SVUzPZIsbHhAd-19" target="WDq88t9SVUzPZIsbHhAd-17">
          <mxGeometry relative="1" as="geometry">
            <Array as="points">
              <mxPoint x="480" y="925" />
              <mxPoint x="480" y="780" />
            </Array>
          </mxGeometry>
        </mxCell>
        <mxCell id="WDq88t9SVUzPZIsbHhAd-22" value="Nope" style="edgeLabel;html=1;align=center;verticalAlign=middle;resizable=0;points=[];" vertex="1" connectable="0" parent="WDq88t9SVUzPZIsbHhAd-21">
          <mxGeometry x="-0.7246" y="-1" relative="1" as="geometry">
            <mxPoint as="offset" />
          </mxGeometry>
        </mxCell>
        <mxCell id="WDq88t9SVUzPZIsbHhAd-24" value="" style="edgeStyle=orthogonalEdgeStyle;rounded=0;orthogonalLoop=1;jettySize=auto;html=1;" edge="1" parent="sPSTHMW7Nx6ZHRc37egf-1" source="WDq88t9SVUzPZIsbHhAd-19" target="WDq88t9SVUzPZIsbHhAd-23">
          <mxGeometry relative="1" as="geometry" />
        </mxCell>
        <mxCell id="WDq88t9SVUzPZIsbHhAd-19" value="All player done ?" style="rhombus;whiteSpace=wrap;html=1;rounded=1;strokeWidth=2;arcSize=14;" vertex="1" parent="sPSTHMW7Nx6ZHRc37egf-1">
          <mxGeometry x="360" y="885" width="80" height="80" as="geometry" />
        </mxCell>
        <mxCell id="WDq88t9SVUzPZIsbHhAd-26" value="" style="edgeStyle=orthogonalEdgeStyle;rounded=0;orthogonalLoop=1;jettySize=auto;html=1;" edge="1" parent="sPSTHMW7Nx6ZHRc37egf-1" source="WDq88t9SVUzPZIsbHhAd-23" target="WDq88t9SVUzPZIsbHhAd-25">
          <mxGeometry relative="1" as="geometry" />
        </mxCell>
        <mxCell id="WDq88t9SVUzPZIsbHhAd-23" value="Resolution phase" style="whiteSpace=wrap;html=1;rounded=1;strokeWidth=2;arcSize=14;" vertex="1" parent="sPSTHMW7Nx6ZHRc37egf-1">
          <mxGeometry x="340" y="1055" width="120" height="60" as="geometry" />
        </mxCell>
        <mxCell id="WDq88t9SVUzPZIsbHhAd-30" value="" style="edgeStyle=orthogonalEdgeStyle;rounded=0;orthogonalLoop=1;jettySize=auto;html=1;" edge="1" parent="sPSTHMW7Nx6ZHRc37egf-1" source="WDq88t9SVUzPZIsbHhAd-25" target="WDq88t9SVUzPZIsbHhAd-29">
          <mxGeometry relative="1" as="geometry" />
        </mxCell>
        <mxCell id="WDq88t9SVUzPZIsbHhAd-25" value="Resources Phase" style="whiteSpace=wrap;html=1;rounded=1;strokeWidth=2;arcSize=14;" vertex="1" parent="sPSTHMW7Nx6ZHRc37egf-1">
          <mxGeometry x="340" y="1195" width="120" height="60" as="geometry" />
        </mxCell>
        <mxCell id="WDq88t9SVUzPZIsbHhAd-31" style="edgeStyle=orthogonalEdgeStyle;rounded=0;orthogonalLoop=1;jettySize=auto;html=1;entryX=1;entryY=0.5;entryDx=0;entryDy=0;" edge="1" parent="sPSTHMW7Nx6ZHRc37egf-1" source="WDq88t9SVUzPZIsbHhAd-29" target="WDq88t9SVUzPZIsbHhAd-15">
          <mxGeometry relative="1" as="geometry">
            <mxPoint x="560" y="750" as="targetPoint" />
            <Array as="points">
              <mxPoint x="520" y="1365" />
              <mxPoint x="520" y="645" />
            </Array>
          </mxGeometry>
        </mxCell>
        <mxCell id="WDq88t9SVUzPZIsbHhAd-32" value="No" style="edgeLabel;html=1;align=center;verticalAlign=middle;resizable=0;points=[];" vertex="1" connectable="0" parent="WDq88t9SVUzPZIsbHhAd-31">
          <mxGeometry x="-0.9391" y="2" relative="1" as="geometry">
            <mxPoint as="offset" />
          </mxGeometry>
        </mxCell>
        <mxCell id="WDq88t9SVUzPZIsbHhAd-34" style="edgeStyle=orthogonalEdgeStyle;rounded=0;orthogonalLoop=1;jettySize=auto;html=1;" edge="1" parent="sPSTHMW7Nx6ZHRc37egf-1" source="WDq88t9SVUzPZIsbHhAd-29" target="WDq88t9SVUzPZIsbHhAd-33">
          <mxGeometry relative="1" as="geometry" />
        </mxCell>
        <mxCell id="WDq88t9SVUzPZIsbHhAd-35" value="Yes" style="edgeLabel;html=1;align=center;verticalAlign=middle;resizable=0;points=[];" vertex="1" connectable="0" parent="WDq88t9SVUzPZIsbHhAd-34">
          <mxGeometry x="0.3067" y="1" relative="1" as="geometry">
            <mxPoint as="offset" />
          </mxGeometry>
        </mxCell>
        <mxCell id="WDq88t9SVUzPZIsbHhAd-29" value="Is it the last turn ?" style="rhombus;whiteSpace=wrap;html=1;rounded=1;strokeWidth=2;arcSize=14;" vertex="1" parent="sPSTHMW7Nx6ZHRc37egf-1">
          <mxGeometry x="360" y="1325" width="80" height="80" as="geometry" />
        </mxCell>
        <mxCell id="WDq88t9SVUzPZIsbHhAd-33" value="" style="verticalLabelPosition=bottom;verticalAlign=top;html=1;shape=mxgraph.flowchart.or;" vertex="1" parent="sPSTHMW7Nx6ZHRc37egf-1">
          <mxGeometry x="377.5" y="1450" width="45" height="50" as="geometry" />
        </mxCell>
      </root>
    </mxGraphModel>
  </diagram>
</mxfile>
